<svg width="157" height="32" viewBox="0 0 157 32" fill="none" xmlns="http://www.w3.org/2000/svg">
    <path d="M32.0689 32H0V0H32.0689V32Z" fill="white"/>
    <path d="M22.2584 9.72795C21.4221 9.63195 20.618 9.56795 19.7817 9.50395C18.9454 9.43995 18.1413 9.40795 17.305 9.40795C16.8868 9.40795 16.4687 9.37595 16.0183 9.37595C15.6324 9.37595 15.2142 9.37595 14.8282 9.40795C13.9919 9.40795 13.1878 9.47195 12.3515 9.50395C11.5152 9.56795 10.7111 9.63195 9.87476 9.72795C9.03846 9.82395 8.23432 9.91995 7.39802 10.0479V12.5439C8.23432 12.4159 9.03846 12.2879 9.87476 12.1919C10.6789 12.0959 11.5152 12.0319 12.3515 11.9679C13.1878 11.9039 13.9919 11.8719 14.8282 11.8719C15.2142 11.8719 15.6324 11.8719 16.0183 11.8719C16.4365 11.8719 16.8546 11.8719 17.305 11.8719C18.1413 11.9039 18.9454 11.9359 19.7817 11.9679C20.618 12.0319 21.4221 12.0959 22.2584 12.1919C23.0947 12.2879 23.8989 12.4159 24.7352 12.5439V10.0479C23.931 9.91995 23.0947 9.82395 22.2584 9.72795Z" fill="black"/>
    <path d="M22.2584 14.7839C21.4543 14.6879 20.618 14.5919 19.7817 14.5599C18.9454 14.4959 18.1413 14.4639 17.305 14.4319C16.8868 14.4319 16.4687 14.3999 16.0183 14.3999C15.6324 14.3999 15.2142 14.3999 14.8282 14.3999C13.9919 14.4319 13.1878 14.4639 12.3515 14.5279C11.5152 14.5919 10.7111 14.6559 9.87476 14.7519C9.03846 14.8479 8.20216 14.9759 7.39802 15.1039V22.5919H9.87476V17.2479C10.7111 17.1519 11.5152 17.0559 12.3515 16.9919V22.5919H14.7961V16.8959C15.182 16.8959 15.6002 16.8639 15.9862 16.8639C16.4043 16.8639 16.8225 16.8639 17.2728 16.8959V22.6239H19.7495V16.9919C20.5858 17.0559 21.39 17.1199 22.2263 17.2479V22.5919H24.703V15.1359C23.931 15.0079 23.0947 14.8799 22.2584 14.7839Z" fill="black"/>
    <path d="M39.2417 8.51196H45.2245C47.8299 8.51196 49.8563 10.144 49.8563 12.864C49.8563 15.552 47.8299 17.184 45.2245 17.184H42.6513V22.016H39.2417V8.51196ZM42.6834 11.04V14.656H44.6455C45.6427 14.656 46.479 14.016 46.479 12.864C46.479 11.68 45.6427 11.04 44.6455 11.04H42.6834Z" fill="white"/>
    <path d="M51.2716 12.704H54.6168V13.28C55.2601 12.768 55.9999 12.512 56.997 12.512C57.8655 12.512 58.541 12.736 58.9913 13.216L57.0614 15.776C56.8362 15.552 56.4824 15.392 55.9999 15.392C55.1314 15.392 54.6168 15.904 54.6168 16.928V21.984H51.2716V12.704Z" fill="white"/>
    <path d="M58.734 17.344C58.734 14.592 60.9534 12.48 63.9769 12.48C67.0005 12.48 69.2199 14.56 69.2199 17.344C69.2199 20.16 67.0005 22.24 64.0091 22.24C60.9855 22.24 58.734 20.128 58.734 17.344ZM65.8103 17.344C65.8103 16.192 65.0705 15.424 63.9769 15.424C62.8833 15.424 62.1435 16.192 62.1435 17.344C62.1435 18.464 62.8833 19.264 63.9769 19.264C65.0705 19.296 65.8103 18.496 65.8103 17.344Z" fill="white"/>
    <path d="M69.9275 17.376C69.9275 14.56 71.7931 12.512 74.5272 12.512C75.3635 12.512 76.1354 12.736 76.7787 13.152V8.12796H80.1239V22.016H76.8431V21.472C76.1998 21.92 75.3956 22.208 74.5593 22.208C71.8253 22.208 69.9275 20.192 69.9275 17.376ZM76.9717 17.344C76.9717 16.224 76.2319 15.456 75.1383 15.456C74.0768 15.456 73.3049 16.256 73.3049 17.344C73.3049 18.464 74.0768 19.264 75.1383 19.264C76.2319 19.264 76.9717 18.496 76.9717 17.344Z" fill="white"/>
    <path d="M81.8287 18.112V12.704H85.1739V18.08C85.1739 18.848 85.6564 19.328 86.3962 19.328C87.1038 19.328 87.6185 18.848 87.6185 18.08V12.704H90.9637V18.08C90.9637 20.544 89.0981 22.208 86.4283 22.208C83.7265 22.24 81.8287 20.512 81.8287 18.112Z" fill="white"/>
    <path d="M91.9608 17.376C91.9608 14.56 94.2445 12.48 97.2681 12.48C98.7155 12.48 99.9378 12.96 100.903 13.92L98.812 16C98.426 15.616 97.9435 15.424 97.2681 15.424C96.1744 15.424 95.3381 16.192 95.3381 17.344C95.3381 18.496 96.1744 19.264 97.2681 19.264C98.0079 19.264 98.4903 19.008 98.8442 18.592L100.967 20.672C99.9056 21.696 98.7477 22.208 97.2037 22.208C94.2445 22.24 91.9608 20.192 91.9608 17.376Z" fill="white"/>
    <path d="M103.315 15.488H101.257V12.736H103.315V8.89596H106.66V12.736H108.719V15.488H106.66V22.048H103.315V15.488Z" fill="white"/>
    <path d="M114.637 9.72796H115.634L120.652 22.016H119.237L117.95 18.816H112.257L110.971 22.016H109.555L114.637 9.72796ZM117.468 17.664L115.12 11.808L112.74 17.664H117.468Z" fill="white"/>
    <path d="M122.582 13.632H123.837V14.752C124.351 13.92 125.155 13.472 126.249 13.472C127.085 13.472 127.761 13.76 128.372 14.4L127.536 15.264C127.118 14.848 126.667 14.624 126.024 14.624C124.737 14.624 123.837 15.488 123.837 17.12V22.016H122.582V13.632Z" fill="white"/>
    <path d="M128.854 17.824C128.854 15.36 130.752 13.472 133.197 13.472C135.481 13.472 137.153 15.168 137.153 17.536C137.153 17.728 137.121 17.952 137.057 18.304H130.141C130.334 19.968 131.556 21.024 133.325 21.024C134.355 21.024 135.223 20.64 135.834 19.904L136.638 20.736C135.834 21.664 134.612 22.208 133.293 22.208C130.752 22.208 128.854 20.32 128.854 17.824ZM130.141 17.216H135.899C135.77 15.616 134.773 14.624 133.165 14.624C131.492 14.624 130.366 15.648 130.141 17.216Z" fill="white"/>
    <path d="M140.305 13.632V14.88C140.884 14.016 141.914 13.472 143.136 13.472C145.098 13.472 146.449 15.04 146.449 16.896V22.048H145.162V17.088C145.162 15.616 144.197 14.592 142.782 14.592C141.335 14.592 140.273 15.616 140.273 17.056V22.016H139.019V13.632H140.305Z" fill="white"/>
    <path d="M148.282 17.856C148.282 15.36 150.084 13.472 152.464 13.472C153.783 13.472 154.876 14.048 155.52 15.04V13.632H156.774V22.016H155.52V20.608C154.908 21.6 153.815 22.176 152.496 22.176C150.116 22.208 148.282 20.32 148.282 17.856ZM155.584 17.824C155.584 15.904 154.394 14.624 152.657 14.624C150.856 14.624 149.569 15.968 149.569 17.824C149.569 19.68 150.856 20.992 152.689 20.992C154.426 21.024 155.584 19.744 155.584 17.824Z" fill="white"/>
</svg>
