<svg width="326" height="66" viewBox="0 0 326 66" fill="none" xmlns="http://www.w3.org/2000/svg">
<path d="M66.142 66H0V0H66.142V66Z" fill="white"/>
<path d="M45.908 20.0639C44.1831 19.8659 42.5246 19.7339 40.7997 19.6019C39.0749 19.4699 37.4163 19.4039 35.6915 19.4039C34.829 19.4039 33.9666 19.3379 33.0378 19.3379C32.2417 19.3379 31.3793 19.3379 30.5832 19.4039C28.8583 19.4039 27.1998 19.5359 25.4749 19.6019C23.7501 19.7339 22.0916 19.8659 20.3667 20.0639C18.6418 20.2619 16.9833 20.4599 15.2584 20.7239V25.8719C16.9833 25.6079 18.6418 25.3439 20.3667 25.1459C22.0252 24.9479 23.7501 24.8159 25.4749 24.6839C27.1998 24.5519 28.8583 24.4859 30.5832 24.4859C31.3793 24.4859 32.2417 24.4859 33.0378 24.4859C33.9003 24.4859 34.7627 24.4859 35.6915 24.4859C37.4163 24.5519 39.0749 24.6179 40.7997 24.6839C42.5246 24.8159 44.1831 24.9479 45.908 25.1459C47.6329 25.3439 49.2914 25.6079 51.0163 25.8719V20.7239C49.3577 20.4599 47.6329 20.2619 45.908 20.0639Z" fill="black"/>
<path d="M45.908 30.4919C44.2495 30.2939 42.5246 30.0959 40.7997 30.0299C39.0749 29.8979 37.4163 29.8319 35.6915 29.7659C34.829 29.7659 33.9666 29.6999 33.0378 29.6999C32.2417 29.6999 31.3793 29.6999 30.5832 29.6999C28.8583 29.7659 27.1998 29.8319 25.4749 29.9639C23.7501 30.0959 22.0916 30.2279 20.3667 30.4259C18.6418 30.6239 16.9169 30.8879 15.2584 31.1519V46.5959H20.3667V35.5739C22.0916 35.3759 23.7501 35.1779 25.4749 35.0459V46.5959H30.5169V34.8479C31.313 34.8479 32.1754 34.7819 32.9715 34.7819C33.8339 34.7819 34.6964 34.7819 35.6251 34.8479V46.6619H40.7334V35.0459C42.4583 35.1779 44.1168 35.3099 45.8417 35.5739V46.5959H50.9499V31.2179C49.3577 30.9539 47.6329 30.6899 45.908 30.4919Z" fill="black"/>
<path d="M80.9361 17.5559H93.2755C98.6492 17.5559 102.829 20.9219 102.829 26.5319C102.829 32.0759 98.6492 35.4419 93.2755 35.4419H87.9683V45.4079H80.9361V17.5559ZM88.0346 22.7699V30.2279H92.0814C94.138 30.2279 95.8628 28.9079 95.8628 26.5319C95.8628 24.0899 94.138 22.7699 92.0814 22.7699H88.0346Z" fill="white"/>
<path d="M105.748 26.2019H112.647V27.3899C113.974 26.3339 115.5 25.8059 117.556 25.8059C119.348 25.8059 120.741 26.2679 121.67 27.2579L117.689 32.5379C117.225 32.0759 116.495 31.7459 115.5 31.7459C113.709 31.7459 112.647 32.8019 112.647 34.9139V45.3419H105.748V26.2019Z" fill="white"/>
<path d="M121.139 35.7719C121.139 30.0959 125.716 25.7399 131.952 25.7399C138.188 25.7399 142.766 30.0299 142.766 35.7719C142.766 41.5799 138.188 45.8699 132.019 45.8699C125.783 45.8699 121.139 41.5139 121.139 35.7719ZM135.734 35.7719C135.734 33.3959 134.208 31.8119 131.952 31.8119C129.697 31.8119 128.171 33.3959 128.171 35.7719C128.171 38.0819 129.697 39.7319 131.952 39.7319C134.208 39.7979 135.734 38.1479 135.734 35.7719Z" fill="white"/>
<path d="M144.225 35.8379C144.225 30.0299 148.073 25.8059 153.712 25.8059C155.437 25.8059 157.029 26.2679 158.356 27.1259V16.7639H165.256V45.4079H158.489V44.2859C157.162 45.2099 155.503 45.8039 153.779 45.8039C148.14 45.8039 144.225 41.6459 144.225 35.8379ZM158.754 35.7719C158.754 33.4619 157.228 31.8779 154.973 31.8779C152.783 31.8779 151.191 33.5279 151.191 35.7719C151.191 38.0819 152.783 39.7319 154.973 39.7319C157.228 39.7319 158.754 38.1479 158.754 35.7719Z" fill="white"/>
<path d="M168.772 37.3559V26.2019H175.671V37.2899C175.671 38.8739 176.666 39.8639 178.192 39.8639C179.652 39.8639 180.713 38.8739 180.713 37.2899V26.2019H187.613V37.2899C187.613 42.3719 183.765 45.8039 178.258 45.8039C172.686 45.8699 168.772 42.3059 168.772 37.3559Z" fill="white"/>
<path d="M189.669 35.8379C189.669 30.0299 194.379 25.7399 200.615 25.7399C203.601 25.7399 206.122 26.7299 208.112 28.7099L203.8 32.9999C203.004 32.2079 202.009 31.8119 200.615 31.8119C198.36 31.8119 196.635 33.3959 196.635 35.7719C196.635 38.1479 198.36 39.7319 200.615 39.7319C202.141 39.7319 203.136 39.2039 203.866 38.3459L208.245 42.6359C206.055 44.7479 203.667 45.8039 200.483 45.8039C194.379 45.8699 189.669 41.6459 189.669 35.8379Z" fill="white"/>
<path d="M213.087 31.9439H208.842V26.2679H213.087V18.3479H219.987V26.2679H224.233V31.9439H219.987V45.4739H213.087V31.9439Z" fill="white"/>
<path d="M236.44 20.0639H238.496L248.845 45.4079H245.926L243.273 38.8079H231.53L228.877 45.4079H225.958L236.44 20.0639ZM242.278 36.4319L237.435 24.3539L232.525 36.4319H242.278Z" fill="white"/>
<path d="M252.826 28.1159H255.413V30.4259C256.475 28.7099 258.133 27.7859 260.389 27.7859C262.114 27.7859 263.507 28.3799 264.767 29.6999L263.042 31.4819C262.18 30.6239 261.251 30.1619 259.924 30.1619C257.271 30.1619 255.413 31.9439 255.413 35.3099V45.4079H252.826V28.1159Z" fill="white"/>
<path d="M265.762 36.7619C265.762 31.6799 269.676 27.7859 274.718 27.7859C279.429 27.7859 282.878 31.2839 282.878 36.1679C282.878 36.5639 282.812 37.0259 282.679 37.7519H268.416C268.814 41.1839 271.335 43.3619 274.984 43.3619C277.107 43.3619 278.898 42.5699 280.158 41.0519L281.817 42.7679C280.158 44.6819 277.637 45.8039 274.917 45.8039C269.676 45.8039 265.762 41.9099 265.762 36.7619ZM268.416 35.5079H280.291C280.026 32.2079 277.969 30.1619 274.652 30.1619C271.202 30.1619 268.88 32.2739 268.416 35.5079Z" fill="white"/>
<path d="M289.38 28.1159V30.6899C290.574 28.9079 292.697 27.7859 295.218 27.7859C299.265 27.7859 302.051 31.0199 302.051 34.8479V45.4739H299.397V35.2439C299.397 32.2079 297.407 30.0959 294.488 30.0959C291.503 30.0959 289.313 32.2079 289.313 35.1779V45.4079H286.726V28.1159H289.38Z" fill="white"/>
<path d="M305.832 36.8279C305.832 31.6799 309.547 27.7859 314.457 27.7859C317.177 27.7859 319.432 28.9739 320.759 31.0199V28.1159H323.346V45.4079H320.759V42.5039C319.499 44.5499 317.243 45.7379 314.523 45.7379C309.614 45.8039 305.832 41.9099 305.832 36.8279ZM320.892 36.7619C320.892 32.8019 318.437 30.1619 314.855 30.1619C311.14 30.1619 308.486 32.9339 308.486 36.7619C308.486 40.5899 311.14 43.2959 314.921 43.2959C318.503 43.3619 320.892 40.7219 320.892 36.7619Z" fill="white"/>
</svg>
